<?xml version="1.0" encoding="UTF-8" standalone="no"?>
<!-- Created with Inkscape (http://www.inkscape.org/) -->

<svg
   xmlns:dc="http://purl.org/dc/elements/1.1/"
   xmlns:cc="http://creativecommons.org/ns#"
   xmlns:rdf="http://www.w3.org/1999/02/22-rdf-syntax-ns#"
   xmlns:svg="http://www.w3.org/2000/svg"
   xmlns="http://www.w3.org/2000/svg"
   xmlns:sodipodi="http://sodipodi.sourceforge.net/DTD/sodipodi-0.dtd"
   xmlns:inkscape="http://www.inkscape.org/namespaces/inkscape"
   width="1920px"
   height="1080px"
   id="svg2993"
   version="1.1"
   inkscape:version="0.48.2 r9819"
   sodipodi:docname="deltav-logo.svg"
   inkscape:export-filename="C:\Users\shill2\Desktop\Working\deltav-logo.png"
   inkscape:export-xdpi="16.969183"
   inkscape:export-ydpi="16.969183">
  <defs
     id="defs2995" />
  <sodipodi:namedview
     id="base"
     pagecolor="#ffffff"
     bordercolor="#666666"
     borderopacity="1.0"
     inkscape:pageopacity="0.0"
     inkscape:pageshadow="2"
     inkscape:zoom="0.21213203"
     inkscape:cx="1141.1436"
     inkscape:cy="542.18403"
     inkscape:document-units="px"
     inkscape:current-layer="layer1"
     showgrid="false"
     inkscape:window-width="1232"
     inkscape:window-height="687"
     inkscape:window-x="125"
     inkscape:window-y="187"
     inkscape:window-maximized="0" />
  <metadata
     id="metadata2998">
    <rdf:RDF>
      <cc:Work
         rdf:about="">
        <dc:format>image/svg+xml</dc:format>
        <dc:type
           rdf:resource="http://purl.org/dc/dcmitype/StillImage" />
        <dc:title></dc:title>
      </cc:Work>
    </rdf:RDF>
  </metadata>
  <g
     id="layer1"
     inkscape:label="Layer 1"
     inkscape:groupmode="layer">
    <path
       inkscape:connector-curvature="0"
       id="path3006"
       style="font-size:660.50256348px;font-style:normal;font-variant:normal;font-weight:normal;font-stretch:normal;line-height:125%;letter-spacing:0px;word-spacing:0px;fill:#000000;fill-opacity:1;stroke:none;font-family:Visitor TT2 BRK;-inkscape-font-specification:Visitor TT2 BRK"
       d="m 103.38514,417.95603 160.15538,0 0,-52.69589 -213.540516,0 0,265.54717 213.540516,0 0,-52.69588 -160.15538,0 0,-160.1554 z m 160.15538,160.1554 52.69589,0 0,-160.1554 -52.69589,0 0,160.1554 z" />
    <path
       inkscape:connector-curvature="0"
       id="path3008"
       style="font-size:660.50256348px;font-style:normal;font-variant:normal;font-weight:normal;font-stretch:normal;line-height:125%;letter-spacing:0px;word-spacing:0px;fill:#000000;fill-opacity:1;stroke:none;font-family:Visitor TT2 BRK;-inkscape-font-specification:Visitor TT2 BRK"
       d="m 369.47533,365.26014 0,265.54717 266.23642,0 0,-52.69588 -212.85129,0 0,-53.38514 106.08103,0 0,-53.38512 -106.08103,0 0,-53.38514 212.85129,0 0,-52.69589 -266.23642,0 z" />
    <path
       inkscape:connector-curvature="0"
       id="path3010"
       style="font-size:660.50256348px;font-style:normal;font-variant:normal;font-weight:normal;font-stretch:normal;line-height:125%;letter-spacing:0px;word-spacing:0px;fill:#000000;fill-opacity:1;stroke:none;font-family:Visitor TT2 BRK;-inkscape-font-specification:Visitor TT2 BRK"
       d="m 741.64655,365.26014 -52.69588,0 0,265.54717 266.2364,0 0,-52.69588 -213.54052,0 0,-212.85129 z" />
    <path
       inkscape:connector-curvature="0"
       id="path3012"
       style="font-size:660.50256348px;font-style:normal;font-variant:normal;font-weight:normal;font-stretch:normal;line-height:125%;letter-spacing:0px;word-spacing:0px;fill:#000000;fill-opacity:1;stroke:none;font-family:Visitor TT2 BRK;-inkscape-font-specification:Visitor TT2 BRK"
       d="m 958.68936,365.26014 0,52.69589 106.77024,0 0,212.85128 53.3852,0 0,-212.85128 106.0809,0 0,-52.69589 -266.23634,0 z" />
    <path
       inkscape:connector-curvature="0"
       id="path3014"
       style="font-size:660.50256348px;font-style:normal;font-variant:normal;font-weight:normal;font-stretch:normal;line-height:125%;letter-spacing:0px;word-spacing:0px;fill:#000000;fill-opacity:1;stroke:none;font-family:Visitor TT2 BRK;-inkscape-font-specification:Visitor TT2 BRK"
       d="m 1278.1647,365.26014 0,265.54717 53.3851,0 0,-106.08102 160.1554,0 0,106.08102 52.6959,0 0,-265.54717 -266.2364,0 z m 213.5405,106.08103 -160.1554,0 0,-53.38514 160.1554,0 0,53.38514 z" />
    <path
       inkscape:connector-curvature="0"
       id="path3016"
       style="font-size:660.50256348px;font-style:normal;font-variant:normal;font-weight:normal;font-stretch:normal;line-height:125%;letter-spacing:0px;word-spacing:0px;fill:#000000;fill-opacity:1;stroke:none;font-family:Visitor TT2 BRK;-inkscape-font-specification:Visitor TT2 BRK"
       d="m 1597.6401,365.26014 0,159.46615 52.6958,0 0,-159.46615 -52.6958,0 z m 212.8512,159.46615 53.3852,0 0,-159.46615 -53.3852,0 0,159.46615 z m -160.1554,0 0,53.38514 53.3852,0 0,-53.38514 -53.3852,0 z m 53.3852,106.08102 53.3851,0 0,-52.69588 -53.3851,0 0,52.69588 z m 53.3851,-52.69588 53.3851,0 0,-53.38514 -53.3851,0 0,53.38514 z" />
  </g>
</svg>
